<?xml version="1.0"?>
<svg version="1.1" id="圖層_1" xmlns="http://www.w3.org/2000/svg" x="0" y="0" viewBox="0 0 100 100" xml:space="preserve"><path d="M76.5 90h-53C16 90 10 84 10 76.5v-53C10 16 16 10 23.5 10h53C84 10 90 16 90 23.5v53C90 84 84 90 76.5 90z" fill="#333"/><path d="M73.3 33.5c-2.3-2.3-6.1-2.3-8.4 0L44.5 53.9l-9.4-9.4c-2.3-2.3-6.1-2.3-8.4 0-1.1 1.1-1.7 2.6-1.7 4.2s.6 3.1 1.7 4.2l13.6 13.6c1.1 1.1 2.6 1.7 4.2 1.7s3.1-.6 4.2-1.7L73.2 42c1.1-1.1 1.7-2.6 1.7-4.2s-.5-3.1-1.6-4.3z" fill="#abbd81"/><metadata xmlns:d="https://loading.io/stock/"><d:name>ok</d:name><d:tags>ok,confirm,ready,positive,check,right,correct,affirmative,success</d:tags><d:license>by</d:license><d:slug>2x4q5m</d:slug></metadata></svg>